<?xml version="1.0" encoding="UTF-8" standalone="no"?>
<svg
   xmlns:ooo="http://xml.openoffice.org/svg/export"
   xmlns:dc="http://purl.org/dc/elements/1.1/"
   xmlns:cc="http://creativecommons.org/ns#"
   xmlns:rdf="http://www.w3.org/1999/02/22-rdf-syntax-ns#"
   xmlns:svg="http://www.w3.org/2000/svg"
   xmlns="http://www.w3.org/2000/svg"
   xmlns:sodipodi="http://sodipodi.sourceforge.net/DTD/sodipodi-0.dtd"
   xmlns:inkscape="http://www.inkscape.org/namespaces/inkscape"
   version="1.2"
   width="249.03999mm"
   height="271.23001mm"
   viewBox="0 0 24904 27123.002"
   preserveAspectRatio="xMidYMid"
   xml:space="preserve"
   id="svg228"
   sodipodi:docname="picrate2.svg"
   inkscape:version="0.92.3 (unknown)"
   style="fill-rule:evenodd;stroke-width:28.22200012;stroke-linejoin:round"><metadata
   id="metadata232"><rdf:RDF><cc:Work
       rdf:about=""><dc:format>image/svg+xml</dc:format><dc:type
         rdf:resource="http://purl.org/dc/dcmitype/StillImage" /><dc:title></dc:title></cc:Work></rdf:RDF></metadata><sodipodi:namedview
   pagecolor="#ffffff"
   bordercolor="#666666"
   borderopacity="1"
   objecttolerance="10"
   gridtolerance="10"
   guidetolerance="10"
   inkscape:pageopacity="0"
   inkscape:pageshadow="2"
   inkscape:window-width="1920"
   inkscape:window-height="1052"
   id="namedview230"
   showgrid="false"
   inkscape:zoom="0.55473447"
   inkscape:cx="395.54646"
   inkscape:cy="390.95434"
   inkscape:window-x="0"
   inkscape:window-y="0"
   inkscape:window-maximized="1"
   inkscape:current-layer="svg228" />
 <defs
   class="ClipPathGroup"
   id="defs155">
  <clipPath
   id="presentation_clip_path"
   clipPathUnits="userSpaceOnUse">
   <rect
   x="0"
   y="0"
   width="34131"
   height="39158"
   id="rect149" />
  </clipPath>
  <clipPath
   id="presentation_clip_path_shrink"
   clipPathUnits="userSpaceOnUse">
   <rect
   x="11"
   y="13"
   width="113021"
   height="13023"
   id="rect152" />
  </clipPath>
 </defs>
 <defs
   class="TextShapeIndex"
   id="defs159">
  <g
   ooo:slide="id1"
   ooo:id-list="id3 id4"
   id="g157" />
 </defs>
 <defs
   class="EmbeddedBulletChars"
   id="defs191">
  <g
   id="bullet-char-template-57356"
   transform="matrix(4.8828125e-4,0,0,-4.8828125e-4,0,0)">
   <path
   d="M 580,1141 1163,571 580,0 -4,571 Z"
   id="path161"
   inkscape:connector-curvature="0" />
  </g>
  <g
   id="bullet-char-template-57354"
   transform="matrix(4.8828125e-4,0,0,-4.8828125e-4,0,0)">
   <path
   d="M 8,1128 H 1137 V 0 H 8 Z"
   id="path164"
   inkscape:connector-curvature="0" />
  </g>
  <g
   id="bullet-char-template-10146"
   transform="matrix(4.8828125e-4,0,0,-4.8828125e-4,0,0)">
   <path
   d="M 174,0 602,739 174,1481 1456,739 Z M 1358,739 309,1346 659,739 Z"
   id="path167"
   inkscape:connector-curvature="0" />
  </g>
  <g
   id="bullet-char-template-10132"
   transform="matrix(4.8828125e-4,0,0,-4.8828125e-4,0,0)">
   <path
   d="M 2015,739 1276,0 H 717 l 543,543 H 174 v 393 h 1086 l -543,545 h 557 z"
   id="path170"
   inkscape:connector-curvature="0" />
  </g>
  <g
   id="bullet-char-template-10007"
   transform="matrix(4.8828125e-4,0,0,-4.8828125e-4,0,0)">
   <path
   d="m 0,-2 c -7,16 -16,29 -25,39 l 381,530 c -94,256 -141,385 -141,387 0,25 13,38 40,38 9,0 21,-2 34,-5 21,4 42,12 65,25 l 27,-13 111,-251 280,301 64,-25 24,25 c 21,-10 41,-24 62,-43 C 886,937 835,863 770,784 769,783 710,716 594,584 L 774,223 c 0,-27 -21,-55 -63,-84 l 16,-20 C 717,90 699,76 672,76 641,76 570,178 457,381 L 164,-76 c -22,-34 -53,-51 -92,-51 -42,0 -63,17 -64,51 -7,9 -10,24 -10,44 0,9 1,19 2,30 z"
   id="path173"
   inkscape:connector-curvature="0" />
  </g>
  <g
   id="bullet-char-template-10004"
   transform="matrix(4.8828125e-4,0,0,-4.8828125e-4,0,0)">
   <path
   d="M 285,-33 C 182,-33 111,30 74,156 52,228 41,333 41,471 c 0,78 14,145 41,201 34,71 87,106 158,106 53,0 88,-31 106,-94 l 23,-176 c 8,-64 28,-97 59,-98 l 735,706 c 11,11 33,17 66,17 42,0 63,-15 63,-46 V 965 c 0,-36 -10,-64 -30,-84 L 442,47 C 390,-6 338,-33 285,-33 Z"
   id="path176"
   inkscape:connector-curvature="0" />
  </g>
  <g
   id="bullet-char-template-9679"
   transform="matrix(4.8828125e-4,0,0,-4.8828125e-4,0,0)">
   <path
   d="M 813,0 C 632,0 489,54 383,161 276,268 223,411 223,592 c 0,181 53,324 160,431 106,107 249,161 430,161 179,0 323,-54 432,-161 108,-107 162,-251 162,-431 0,-180 -54,-324 -162,-431 C 1136,54 992,0 813,0 Z"
   id="path179"
   inkscape:connector-curvature="0" />
  </g>
  <g
   id="bullet-char-template-8226"
   transform="matrix(4.8828125e-4,0,0,-4.8828125e-4,0,0)">
   <path
   d="m 346,457 c -73,0 -137,26 -191,78 -54,51 -81,114 -81,188 0,73 27,136 81,188 54,52 118,78 191,78 73,0 134,-26 185,-79 51,-51 77,-114 77,-187 0,-75 -25,-137 -76,-188 -50,-52 -112,-78 -186,-78 z"
   id="path182"
   inkscape:connector-curvature="0" />
  </g>
  <g
   id="bullet-char-template-8211"
   transform="matrix(4.8828125e-4,0,0,-4.8828125e-4,0,0)">
   <path
   d="M -4,459 H 1135 V 606 H -4 Z"
   id="path185"
   inkscape:connector-curvature="0" />
  </g>
  <g
   id="bullet-char-template-61548"
   transform="matrix(4.8828125e-4,0,0,-4.8828125e-4,0,0)">
   <path
   d="m 173,740 c 0,163 58,303 173,419 116,115 255,173 419,173 163,0 302,-58 418,-173 116,-116 174,-256 174,-419 0,-163 -58,-303 -174,-418 C 1067,206 928,148 765,148 601,148 462,206 346,322 231,437 173,577 173,740 Z"
   id="path188"
   inkscape:connector-curvature="0" />
  </g>
 </defs>
 <defs
   class="TextEmbeddedBitmaps"
   id="defs193" />
 <g
   id="g198"
   transform="translate(-6600,-2800)">
  <g
   id="id2"
   class="Master_Slide">
   <g
   id="bg-id2"
   class="Background" />
   <g
   id="bo-id2"
   class="BackgroundObjects" />
  </g>
 </g>
 <g
   class="SlideGroup"
   id="g226"
   transform="translate(-6600,-2800)">
  <g
   id="g224">
   <g
   id="container-id1">
    <g
   id="id1"
   class="Slide"
   clip-path="url(#presentation_clip_path)">
     <g
   class="Page"
   id="g220">
      <g
   class="com.sun.star.drawing.ClosedBezierShape"
   id="g211">
       <g
   id="id3">
        <rect
   class="BoundingBox"
   x="9799"
   y="3199"
   width="13903"
   height="26103"
   id="rect200"
   style="fill:none;stroke:none" />
        <path
   d="m 16499,3200 c 3798,0 6700,2901 6700,6699 0,2790 -1566,5097 -3904,6124 2617,950 4405,3412 4405,6427 0,3884 -2966,6850 -6850,6850 -3884,0 -6850,-2966 -6850,-6850 0,-2876 1627,-5249 4049,-6286 -2527,-945 -4249,-3339 -4249,-6265 0,-3798 2901,-6699 6699,-6699 z m -1,3349 c -1899,0 -3349,1450 -3349,3349 0,1899 1450,3350 3349,3350 1899,0 3350,-1451 3350,-3350 0,-1899 -1451,-3349 -3350,-3349 z m 350,12475 c -1941,0 -3424,1483 -3424,3424 0,1941 1483,3425 3424,3425 1941,0 3425,-1484 3425,-3425 0,-1941 -1484,-3424 -3425,-3424 z"
   id="path202"
   inkscape:connector-curvature="0"
   style="fill:#ed1c24;stroke:none" />
        <path
   d="m 16499,3200 c 3798,0 6700,2901 6700,6699 0,2790 -1566,5097 -3904,6124 2617,950 4405,3412 4405,6427 0,3884 -2966,6850 -6850,6850 -3884,0 -6850,-2966 -6850,-6850 0,-2876 1627,-5249 4049,-6286 -2527,-945 -4249,-3339 -4249,-6265 0,-3798 2901,-6699 6699,-6699 z"
   id="path204"
   inkscape:connector-curvature="0"
   style="fill:none;stroke:#3465a4" />
        <path
   d="m 16498,6549 c -1899,0 -3349,1450 -3349,3349 0,1899 1450,3350 3349,3350 1899,0 3350,-1451 3350,-3350 0,-1899 -1451,-3349 -3350,-3349 z"
   id="path206"
   inkscape:connector-curvature="0"
   style="fill:none;stroke:#3465a4" />
        <path
   d="m 16848,19024 c -1941,0 -3424,1483 -3424,3424 0,1941 1483,3425 3424,3425 1941,0 3425,-1484 3425,-3425 0,-1941 -1484,-3424 -3425,-3424 z"
   id="path208"
   inkscape:connector-curvature="0"
   style="fill:none;stroke:#3465a4" />
       </g>
      </g>
      <g
   class="com.sun.star.drawing.PolyPolygonShape"
   id="g218">
       <g
   id="id4">
        <rect
   class="BoundingBox"
   x="6600"
   y="2800"
   width="24904"
   height="27123"
   id="rect213"
   style="fill:none;stroke:none" />
        <path
   d="m 23480,6292 -200,-121 -268,-154 -248,-139 -91,-49 -55,-27 -32,-14 -33,-15 -57,-26 -10,-5 -13,-6 -14,-6 -15,-6 -30,-11 -15,-4 -14,-4 -15,-4 -17,-7 -39,-17 -43,-20 -42,-23 -93,-55 -202,307 -204,304 -212,-140 -89,-54 -40,-23 -37,-18 -32,-14 -15,-6 -13,-4 -10,-3 -9,-1 h -5 l -3,-1 h -4 l -2,1 -5,3 -6,3 -14,12 -16,17 -17,20 -39,50 -38,59 -37,59 -29,55 -11,24 -8,21 -4,17 -1,7 1,5 v 6 l -1,8 -1,8 -1,8 -2,7 -2,7 -4,7 -1,3 -2,2 -2,3 -2,3 -3,2 -2,1 -2,2 -2,1 h -2 -1 l -1,1 -1,-1 h -1 -1 -1 v -1 h -1 l -1,-1 v 0 l -1,-1 -1,-1 -1,-2 -1,-2 -1,-3 v -1 -2 l -1,-2 -1,-1 -3,-5 -4,-4 -5,-4 -5,-4 -14,-9 -15,-8 -19,-10 -19,-9 -21,-9 -12,-5 -15,-8 -39,-22 -48,-32 -54,-38 -125,-92 -132,-105 -139,-108 -136,-101 -118,-81 -48,-30 -37,-22 -1021,-551 -104,-53 -182,-90 -497,-237 -498,-232 -186,-84 -109,-45 -23,-9 -21,-9 -20,-10 -17,-9 -16,-9 -6,-5 -5,-4 -5,-4 -3,-4 -1,-1 -1,-2 -1,-2 -1,-1 v -2 -1 l -1,-1 -1,-1 -1,-2 -2,-1 -2,-2 -3,-3 -4,-2 -5,-2 -5,-2 -5,-2 -6,-1 -13,-3 -13,-1 -15,-1 -14,1 h -12 l -11,-2 -9,-1 -5,-2 h -2 l -3,-2 h -1 l -1,-1 -1,-1 h -1 v -1 0 -1 -1 -1 l 1,-1 v 0 0 0 -2 0 l -1,-1 v 0 l -1,-2 -1,-1 -4,-2 -5,-3 -6,-3 -15,-7 -19,-7 -21,-8 -52,-15 -53,-16 -45,-16 -18,-8 -16,-7 -6,-3 -5,-4 -5,-2 -1,-1 -1,-1 -3,-2 -4,-3 -12,-6 -13,-6 -17,-7 -37,-14 -21,-7 -22,-6 -22,-6 -21,-6 -20,-6 -17,-8 -16,-6 -13,-6 -5,-3 -5,-3 -4,-2 v -2 l -2,-1 -1,-1 -2,-1 -3,-2 -5,-3 -5,-3 -12,-6 -16,-5 -38,-14 -43,-13 -23,-6 -25,-7 -50,-17 -48,-18 -20,-9 -17,-8 -53,-20 -89,-32 -234,-77 -215,-68 -70,-23 -21,-7 -6,-3 h -2 l -1,-1 -4,-2 -5,-2 -16,-6 -71,-22 -465,-139 -139,-42 -122,-39 -88,-31 -29,-13 -10,-5 -6,-3 -4,-3 -5,-3 -4,-2 -5,-2 -4,-2 -5,-1 -4,-1 h -4 -4 -4 l -4,1 -3,1 -3,2 -4,2 -2,2 -3,3 -1,2 -3,2 -2,2 -3,2 -4,1 -3,2 h -3 -4 -4 l -3,1 -4,-1 -4,-1 -4,-1 -4,-2 -3,-2 -4,-2 -2,-2 -3,-1 -10,-3 -33,-11 -106,-28 -150,-37 -177,-40 -175,-40 -144,-38 -55,-16 -42,-14 -16,-5 -11,-6 -4,-2 -3,-2 -3,-2 v 0 -1 l -1,-3 -1,-1 v -1 l -1,-1 v 0 l -1,-2 h -1 -1 l -1,-1 h -1 -1 -1 -2 -1 l -3,1 -3,1 -2,2 -3,2 -2,2 -3,3 -3,3 -2,3 -3,4 -2,3 -3,3 -3,1 -3,3 -2,1 -2,1 -3,1 h -1 -1 -1 -1 -1 -1 l -1,-1 v 0 l -1,-1 -1,-1 -1,-1 v -1 -1 -1 l -1,-4 v -1 l -1,-1 -1,-2 -2,-1 -3,-3 -3,-2 -3,-3 -5,-2 -5,-2 -5,-1 -6,-1 -6,-2 -12,-1 h -14 l -15,1 -7,1 -8,1 -8,-1 -7,-1 h -7 l -7,-1 -7,-1 -6,-2 -6,-3 -6,-2 -4,-2 -5,-4 -4,-3 -4,-2 -2,-4 -2,-2 -1,-1 -1,-4 -2,-4 -2,-3 -1,-2 -3,-2 -2,-2 v 0 l -2,-1 h -1 l -1,-1 h -2 v -1 l -1,1 h -1 -2 -1 -1 -1 l -2,2 -2,2 -2,1 -2,2 -1,1 v 1 l -2,1 -2,1 h -3 l -7,2 h -8 l -22,-1 -28,-2 -68,-10 -82,-15 -84,-19 -78,-14 -63,-10 -23,-2 h -9 l -8,-1 -5,1 h -8 l -18,-1 -21,-2 -24,-4 -26,-5 -26,-6 -28,-7 -27,-8 -51,-11 -46,-10 -36,-5 -13,-1 -4,-1 h -4 l -5,2 -8,-1 h -24 l -72,-5 -205,-20 -202,-26 -69,-11 -20,-4 -6,-2 -3,-1 -1,-1 h -1 -2 l -2,-1 -5,-2 h -4 l -13,-2 h -15 -37 l -42,1 -22,2 -22,-1 -22,-1 -20,-2 -19,-3 -16,-5 -8,-2 -6,-3 -5,-2 -5,-3 -4,-3 -4,-2 -5,-2 -4,-2 -4,-1 h -5 l -4,-1 h -4 -4 l -5,1 -4,1 -3,1 -3,2 -4,2 -1,2 -3,3 -2,2 -2,2 -2,2 -3,2 -2,1 h -2 l -2,1 -3,-1 h -3 l -3,-1 -2,-1 -2,-2 -3,-2 -2,-2 -2,-3 -2,-4 -2,-3 -2,-2 -3,-3 -3,-2 -3,-2 -4,-2 h -3 l -5,-2 h -4 l -4,1 h -5 l -4,1 -5,1 -6,2 -4,2 -6,2 -5,3 -5,2 -10,4 -10,3 -6,1 h -5 l -5,1 h -6 -4 l -4,-1 -5,-1 -3,-1 -4,-1 -2,-1 -1,-1 -1,-1 -3,-1 -4,-3 -7,-2 -8,-1 -16,-3 -21,-2 -22,-1 h -25 -27 l -27,2 -52,3 h -24 l -22,-1 -19,-1 -16,-1 -6,-2 -5,-1 -5,-1 -1,-1 -2,-1 -1,-1 -2,-1 -5,-2 -8,-1 -8,-1 -20,-3 -25,-1 -61,-1 -68,1 -69,3 h -58 l -23,-2 -17,-2 -6,-1 -5,-1 -2,-1 -2,-1 v 0 l -1,-1 v 0 -1 -1 l -2,-1 h -1 l -1,-1 -2,-1 -2,-1 -5,-1 h -4 l -7,-1 h -15 l -17,2 -19,3 -22,3 -22,5 -22,5 -22,4 -20,3 -19,1 h -16 -6 l -7,-1 -5,-2 h -2 l -2,-1 -2,-1 -1,-1 -1,-1 -1,-2 h -1 l -1,-1 h -1 l -3,-1 -3,-1 -8,-1 -9,-2 h -26 -32 l -80,4 -93,8 -95,7 -43,1 -37,-1 -32,-3 -13,-2 -12,-2 -9,-3 -4,-2 -3,-1 -3,-1 -2,-2 -2,-2 -1,-1 v -2 l -2,-3 -2,-3 -3,-2 -1,-2 -3,-2 h -1 l -2,-1 v 0 l -2,-1 h -1 l -1,1 -3,-1 -2,1 h -3 l -3,1 -2,2 -3,2 -2,2 -3,3 v 2 h -1 l -3,2 -8,4 -13,4 -16,4 -44,10 -55,11 -141,22 -169,20 -165,20 -133,20 -89,17 -14,3 -11,3 -3,1 -3,2 h -1 v 1 h -1 v 0 0 1 0 l 1,2 1,2 2,1 5,4 6,3 17,8 23,9 27,10 31,10 71,20 68,18 30,9 25,9 20,8 8,3 7,4 5,3 2,2 1,1 1,1 v 1 0 l 1,1 -1,1 v 0 1 h -1 v 1 1 1 0 1 l 1,1 h 1 l 1,1 v 0 l 3,1 3,1 3,2 h 4 l 4,1 9,1 h 11 l 12,-1 14,1 15,2 17,4 17,3 17,5 17,6 15,6 15,7 13,8 15,6 16,6 16,7 16,5 15,4 14,3 12,2 6,1 4,1 6,1 5,2 5,2 6,2 5,3 5,3 4,3 5,3 4,3 5,4 2,4 3,4 3,4 2,3 2,4 3,4 2,2 3,3 2,2 3,2 2,1 h 3 l 1,1 h 1 2 1 2 1 l 2,-1 2,-1 2,-2 2,-2 2,-2 2,-3 3,-2 3,-3 2,-2 2,-1 3,-2 2,-1 4,-1 h 2 3 3 l 3,1 2,1 2,1 3,2 3,2 1,1 3,2 5,4 22,10 72,31 102,39 122,45 238,89 89,35 30,13 19,9 14,8 16,7 17,7 16,6 16,5 16,4 15,3 6,1 h 6 l 11,3 11,3 10,4 4,2 5,3 3,2 5,3 3,2 3,3 2,3 3,3 1,2 1,2 v 1 l 1,2 v 1 2 l 1,1 2,3 2,2 3,3 3,2 3,2 4,2 4,2 4,2 5,2 5,1 4,1 h 5 5 5 l 9,2 11,2 38,12 115,40 334,127 360,145 145,63 100,47 15,8 15,5 23,9 16,5 22,10 60,25 67,31 61,29 26,13 23,9 8,5 7,2 h 2 l 2,1 h 1 1 v 0 0 0 0 l 1,-1 h 1 v 0 0 h 1 1 2 l 5,2 18,6 32,14 359,160 461,219 232,124 46,24 61,31 141,65 215,111 306,170 796,468 895,549 819,525 672,437 458,298 498,342 431,310 157,121 102,84 281,269 92,96 66,77 24,34 19,31 15,29 10,27 7,27 4,27 1,28 v 29 l -2,32 -5,30 -8,30 -12,28 -14,28 -18,28 -22,28 -26,30 -24,27 -19,25 -16,23 -11,21 -4,10 -3,9 -2,9 -1,9 v 7 l 1,7 1,7 3,7 1,2 1,4 2,7 1,8 1,10 v 23 l -1,26 -2,30 -5,31 -5,32 -7,31 -8,28 -11,29 -15,32 -19,38 -57,94 -88,131 -809,1111 -992,1337 -3,4 -4,6 -12,17 -31,51 -82,145 -189,340 -37,67 -44,84 -98,206 -100,226 -89,212 -56,135 -28,66 -25,52 -177,407 -117,260 -56,117 -45,87 -343,644 -113,188 -224,338 -899,1279 -4357,6056 -2846,4007 -316,483 -205,345 -66,130 -48,108 -32,91 -17,77 -1,22 2,25 4,27 8,31 22,68 32,73 39,76 44,76 50,73 52,66 43,46 53,52 129,116 154,127 164,127 164,121 153,104 130,80 52,27 43,18 23,7 27,3 29,2 31,-1 66,-5 68,-13 62,-17 29,-10 26,-11 22,-13 18,-12 7,-7 7,-6 5,-7 3,-7 2,-4 2,-4 2,-3 2,-3 3,-3 3,-2 3,-2 4,-2 3,-1 4,-1 4,1 h 3 l 4,1 4,1 3,1 3,3 h 1 l 1,1 h 2 l 1,-1 3,-1 5,-3 7,-6 17,-17 23,-26 64,-81 90,-121 651,-933 3305,-4613 1333,-1759 611,-858 581,-859 1383,-2012 606,-840 398,-520 230,-254 284,-294 285,-281 240,-217 153,-136 66,-59 25,-25 20,-20 18,-17 19,-16 20,-16 21,-15 20,-15 20,-12 17,-10 8,-4 8,-3 12,-6 12,-6 9,-6 9,-6 3,-2 3,-3 2,-2 2,-3 1,-1 v 0 l 1,-1 -1,-1 v -1 l -1,-1 v -1 0 0 l -1,-1 v 0 0 -2 l 1,-1 3,-4 3,-5 12,-12 16,-16 43,-38 57,-45 65,-52 71,-63 67,-64 30,-30 24,-28 200,-209 41,-42 51,-55 102,-115 2112,-2767 234,-316 78,-101 57,-69 22,-25 19,-17 15,-13 8,-4 6,-4 6,-2 6,-1 h 5 l 5,1 5,2 4,2 5,2 5,4 18,16 9,7 7,5 7,5 6,3 3,1 2,2 h 1 v 0 l 1,1 1,-1 h 1 l 1,-1 3,-4 13,-13 43,-46 131,-141 137,-149 77,-86 4,-3 3,-3 3,-3 4,-2 5,-1 5,-1 6,1 7,1 16,4 19,7 25,11 29,16 74,43 101,64 297,196 632,440 808,584 762,565 494,381 287,239 73,58 125,104 342,290 352,305 231,207 285,266 54,48 69,64 150,146 259,247 39,36 43,43 80,78 163,155 185,178 245,243 220,224 73,78 24,25 11,15 9,11 13,15 31,35 39,38 41,37 20,19 19,18 18,18 16,19 14,16 11,16 5,7 4,7 3,6 2,5 2,4 2,5 4,6 5,6 10,13 12,15 15,15 17,16 18,15 18,15 21,19 29,28 74,79 187,210 177,207 61,78 19,26 11,17 4,10 6,9 6,10 7,10 16,20 16,18 20,20 23,26 54,64 119,155 53,76 44,66 17,27 11,21 4,9 2,6 2,5 v 1 0 l -1,1 -1,3 -1,2 -1,3 -1,2 v 1 2 1 l 1,1 v 1 l 1,1 1,1 v 2 h 1 l 1,1 v 1 l 2,1 2,2 3,1 2,1 4,1 h 4 4 4 l 4,2 3,1 4,2 3,2 3,3 3,2 3,4 3,3 2,4 2,4 2,4 1,4 1,4 1,5 v 4 5 l 1,4 1,5 1,4 2,5 1,3 3,4 2,3 3,3 3,3 3,3 3,1 4,3 4,1 3,1 h 4 l 4,1 h 4 l 3,2 3,1 2,1 v 0 l 2,1 1,1 1,1 1,1 v 1 l 1,2 1,1 v 1 1 2 2 3 l -1,3 -1,3 -1,3 -3,3 -2,3 -1,3 -1,3 -1,3 v 3 3 2 l 1,2 1,1 v 1 l 1,2 h 1 v 2 l 2,1 h 1 l 1,1 1,1 3,1 3,1 4,1 h 4 4 l 4,2 3,1 4,2 4,2 2,2 3,3 3,3 3,3 2,4 2,3 2,5 1,4 1,5 1,4 -1,5 1,4 1,4 1,5 2,5 2,5 3,6 7,11 9,12 10,11 12,11 6,5 6,5 11,9 4,4 5,4 4,5 4,5 4,4 3,5 2,4 2,5 2,5 v 4 3 2 l -1,3 v 1 2 l -1,2 -1,1 -2,3 -1,3 -1,3 -1,2 -1,3 v 3 l -1,2 2,3 v 3 l 1,2 1,2 2,3 2,2 1,2 3,2 3,1 5,5 7,5 16,16 19,20 19,22 17,26 21,30 40,58 30,40 25,31 93,106 16,19 14,18 12,18 9,17 4,8 3,8 3,7 1,7 1,6 -1,6 1,2 -1,2 -1,2 -1,1 -3,4 -2,4 -1,3 -1,3 v 1 l -1,1 1,2 v 1 1 l 1,1 h 1 l 1,1 1,1 h 1 l 1,1 2,1 h 4 4 5 l 6,1 13,-2 9,-1 7,-3 7,-3 6,-5 6,-6 5,-8 4,-9 5,-10 3,-12 4,-14 5,-32 5,-40 3,-48 v -46 l -3,-58 -14,-140 -52,-342 -71,-349 -39,-151 -38,-120 -54,-155 -21,-64 -8,-24 -4,-18 -6,-21 -11,-34 -36,-98 -105,-266 -106,-269 -39,-99 -21,-58 -5,-16 -6,-15 -7,-16 -7,-14 -7,-13 -7,-11 -4,-5 -3,-4 -3,-3 -3,-3 -4,-2 -2,-3 -3,-3 -2,-3 -2,-3 -2,-3 v -4 l -1,-4 v -3 -4 l 1,-4 v -3 l 2,-4 2,-4 1,-3 3,-4 2,-3 2,-3 1,-3 1,-2 v -2 -3 l 1,-2 -1,-1 v -1 l -1,-1 v -1 h -1 v -1 -1 h -1 l -1,-1 -1,-1 h -1 -1 l -2,-1 h -3 -3 -1 -2 l -1,-1 -3,-1 -4,-2 -4,-5 -10,-10 -10,-14 -11,-17 -11,-20 -22,-46 -21,-49 -18,-49 -12,-46 -4,-19 -2,-17 -1,-9 -1,-3 -1,-4 -2,-3 v -2 l -1,-1 -1,-1 v -1 h -1 l -1,-1 -1,-1 h -1 v 0 h -1 l -1,1 h -2 v 0 l -2,2 -2,1 -3,2 -2,3 -2,4 -2,2 -3,2 -2,2 h -1 l -1,1 h -1 -1 -1 -1 v -1 h -1 -1 l -1,-1 -1,-1 v -1 l -1,-3 -1,-3 -1,-3 -1,-5 -1,-10 v -5 l -1,-6 -2,-7 -3,-9 -7,-19 -9,-22 -11,-23 -13,-25 -13,-24 -16,-25 -60,-113 -44,-91 -16,-37 -12,-32 -7,-27 -2,-12 -2,-11 v -4 -4 l -2,-4 v -4 l -2,-2 -1,-3 v -1 l -1,-1 -1,-1 v -1 h -1 l -1,-1 h -1 -1 v -1 l -1,1 h -1 -2 v 1 h -1 -1 l -1,1 -2,1 -2,3 -1,1 -1,1 -1,2 h -1 -1 v 0 l -1,1 h -2 l -1,-1 h -1 l -2,-1 h -1 l -1,-1 -1,-1 -3,-3 -2,-2 -2,-4 -3,-4 -2,-4 -5,-11 -5,-12 -11,-27 -24,-48 -77,-141 -224,-391 -224,-376 -77,-124 -24,-36 -8,-10 -2,-3 -2,-1 -3,-1 -3,-2 -2,-2 -2,-2 -2,-3 v -2 l -1,-2 v -3 l -1,-4 v -2 -3 l 1,-3 2,-3 1,-3 1,-3 2,-3 2,-3 1,-2 1,-3 1,-3 -1,-2 v -2 -1 -1 h -1 l -1,-2 v -1 l -2,-2 -1,-2 -3,-2 -3,-2 -3,-1 -3,-2 -4,-1 -5,-1 -3,-1 -4,-1 h -4 l -3,-2 -3,-2 -2,-1 -2,-2 -2,-2 -2,-2 v -1 l -1,-1 -1,-1 v -1 -2 -1 -1 l -1,-1 1,-1 v -1 l 2,-3 1,-3 2,-2 1,-3 1,-3 v -3 l -1,-4 v -3 l -1,-4 -1,-3 -1,-4 -3,-4 -2,-3 -1,-3 -3,-3 -3,-3 -3,-3 -4,-3 -5,-3 -4,-5 -14,-16 -17,-20 -19,-24 -42,-60 -46,-69 -78,-119 -26,-38 -7,-11 -2,-3 -1,-1 v 0 0 l -1,-1 h -1 l -2,-4 -8,-11 -25,-35 -76,-113 -65,-97 -100,-143 -251,-348 -344,-478 -28,-40 -13,-17 -5,-8 -5,-5 -14,-20 -3,-5 -1,-2 -1,-1 -1,-2 v -2 -1 -1 -1 l -2,-3 -4,-5 -11,-12 -28,-33 -396,-470 -361,-433 -44,-54 -13,-16 -7,-10 -16,-18 -49,-57 -148,-166 -160,-174 -105,-112 -167,-180 -68,-75 -24,-28 -16,-18 -10,-11 -6,-5 -5,-4 -6,-5 -5,-4 -3,-2 -3,-2 -2,-1 -3,-1 -3,-2 -4,-4 -12,-11 -38,-35 -107,-103 -437,-424 -210,-196 -153,-136 -528,-445 -282,-240 -92,-80 -28,-26 -8,-9 -5,-5 -2,-2 -1,-3 -1,-3 -1,-3 -1,-7 -1,-8 1,-8 1,-9 3,-9 3,-10 8,-22 12,-23 14,-25 17,-25 17,-24 16,-26 14,-24 12,-23 10,-22 8,-19 5,-16 1,-7 1,-6 -1,-2 v -3 l -3,-7 -4,-8 -6,-9 -16,-21 -21,-24 -26,-27 -29,-27 -33,-29 -35,-30 -175,-138 144,-220 64,-92 30,-38 28,-34 26,-27 22,-21 10,-8 9,-6 8,-5 4,-1 3,-1 6,-2 7,-2 5,-3 6,-3 10,-8 10,-10 7,-10 6,-13 5,-13 4,-14 1,-13 1,-15 -1,-14 -3,-14 -4,-15 -7,-13 -7,-12 -10,-11 -37,-37 -72,-73 -208,-214 -107,-104 -140,-130 -329,-295 -302,-256 -105,-84 -35,-25 -13,-8 -9,-5 -3,-1 -4,-2 -12,-6 -36,-21 -48,-31 z"
   id="path215"
   inkscape:connector-curvature="0"
   style="fill:#000000;stroke:none" />
       </g>
      </g>
     </g>
    </g>
   </g>
  </g>
 </g>
</svg>